<svg width="120" height="22" viewBox="0 0 120 22" fill="none" xmlns="http://www.w3.org/2000/svg">
<path d="M4.79366 12.722H2.17466L1.72466 14H0.653656L2.89466 7.736H4.08266L6.32366 14H5.24366L4.79366 12.722ZM4.50566 11.885L3.48866 8.978L2.46266 11.885H4.50566ZM12.797 9.608C12.797 9.926 12.722 10.226 12.572 10.508C12.422 10.79 12.182 11.021 11.852 11.201C11.522 11.375 11.099 11.462 10.583 11.462H9.44905V14H8.42305V7.745H10.583C11.063 7.745 11.468 7.829 11.798 7.997C12.134 8.159 12.383 8.381 12.545 8.663C12.713 8.945 12.797 9.26 12.797 9.608ZM10.583 10.625C10.973 10.625 11.264 10.538 11.456 10.364C11.648 10.184 11.744 9.932 11.744 9.608C11.744 8.924 11.357 8.582 10.583 8.582H9.44905V10.625H10.583ZM19.2746 9.608C19.2746 9.926 19.1996 10.226 19.0496 10.508C18.8996 10.79 18.6596 11.021 18.3296 11.201C17.9996 11.375 17.5766 11.462 17.0606 11.462H15.9266V14H14.9006V7.745H17.0606C17.5406 7.745 17.9456 7.829 18.2756 7.997C18.6116 8.159 18.8606 8.381 19.0226 8.663C19.1906 8.945 19.2746 9.26 19.2746 9.608ZM17.0606 10.625C17.4506 10.625 17.7416 10.538 17.9336 10.364C18.1256 10.184 18.2216 9.932 18.2216 9.608C18.2216 8.924 17.8346 8.582 17.0606 8.582H15.9266V10.625H17.0606ZM24.499 10.859C24.499 10.247 24.64 9.698 24.922 9.212C25.21 8.726 25.597 8.348 26.083 8.078C26.575 7.802 27.112 7.664 27.694 7.664C28.36 7.664 28.951 7.829 29.467 8.159C29.989 8.483 30.367 8.945 30.601 9.545H29.368C29.206 9.215 28.981 8.969 28.693 8.807C28.405 8.645 28.072 8.564 27.694 8.564C27.28 8.564 26.911 8.657 26.587 8.843C26.263 9.029 26.008 9.296 25.822 9.644C25.642 9.992 25.552 10.397 25.552 10.859C25.552 11.321 25.642 11.726 25.822 12.074C26.008 12.422 26.263 12.692 26.587 12.884C26.911 13.07 27.28 13.163 27.694 13.163C28.072 13.163 28.405 13.082 28.693 12.92C28.981 12.758 29.206 12.512 29.368 12.182H30.601C30.367 12.782 29.989 13.244 29.467 13.568C28.951 13.892 28.36 14.054 27.694 14.054C27.106 14.054 26.569 13.919 26.083 13.649C25.597 13.373 25.21 12.992 24.922 12.506C24.64 12.02 24.499 11.471 24.499 10.859ZM35.78 14.063C35.198 14.063 34.661 13.928 34.169 13.658C33.683 13.382 33.296 13.001 33.008 12.515C32.726 12.023 32.585 11.471 32.585 10.859C32.585 10.247 32.726 9.698 33.008 9.212C33.296 8.726 33.683 8.348 34.169 8.078C34.661 7.802 35.198 7.664 35.78 7.664C36.368 7.664 36.905 7.802 37.391 8.078C37.883 8.348 38.27 8.726 38.552 9.212C38.834 9.698 38.975 10.247 38.975 10.859C38.975 11.471 38.834 12.023 38.552 12.515C38.27 13.001 37.883 13.382 37.391 13.658C36.905 13.928 36.368 14.063 35.78 14.063ZM35.78 13.172C36.194 13.172 36.563 13.079 36.887 12.893C37.211 12.701 37.463 12.431 37.643 12.083C37.829 11.729 37.922 11.321 37.922 10.859C37.922 10.397 37.829 9.992 37.643 9.644C37.463 9.296 37.211 9.029 36.887 8.843C36.563 8.657 36.194 8.564 35.78 8.564C35.366 8.564 34.997 8.657 34.673 8.843C34.349 9.029 34.094 9.296 33.908 9.644C33.728 9.992 33.638 10.397 33.638 10.859C33.638 11.321 33.728 11.729 33.908 12.083C34.094 12.431 34.349 12.701 34.673 12.893C34.997 13.079 35.366 13.172 35.78 13.172ZM46.2486 14H45.2226L42.1356 9.329V14H41.1096V7.736H42.1356L45.2226 12.398V7.736H46.2486V14ZM49.7469 8.573V10.409H51.9069V11.246H49.7469V13.163H52.1769V14H48.7209V7.736H52.1769V8.573H49.7469ZM54.2236 10.859C54.2236 10.247 54.3646 9.698 54.6466 9.212C54.9346 8.726 55.3216 8.348 55.8076 8.078C56.2996 7.802 56.8366 7.664 57.4186 7.664C58.0846 7.664 58.6756 7.829 59.1916 8.159C59.7136 8.483 60.0916 8.945 60.3256 9.545H59.0926C58.9306 9.215 58.7056 8.969 58.4176 8.807C58.1296 8.645 57.7966 8.564 57.4186 8.564C57.0046 8.564 56.6356 8.657 56.3116 8.843C55.9876 9.029 55.7326 9.296 55.5466 9.644C55.3666 9.992 55.2766 10.397 55.2766 10.859C55.2766 11.321 55.3666 11.726 55.5466 12.074C55.7326 12.422 55.9876 12.692 56.3116 12.884C56.6356 13.07 57.0046 13.163 57.4186 13.163C57.7966 13.163 58.1296 13.082 58.4176 12.92C58.7056 12.758 58.9306 12.512 59.0926 12.182H60.3256C60.0916 12.782 59.7136 13.244 59.1916 13.568C58.6756 13.892 58.0846 14.054 57.4186 14.054C56.8306 14.054 56.2936 13.919 55.8076 13.649C55.3216 13.373 54.9346 12.992 54.6466 12.506C54.3646 12.02 54.2236 11.471 54.2236 10.859ZM66.6926 7.745V8.582H65.0276V14H64.0016V8.582H62.3276V7.745H66.6926ZM72.6276 12.722H70.0086L69.5586 14H68.4876L70.7286 7.736H71.9166L74.1576 14H73.0776L72.6276 12.722ZM72.3396 11.885L71.3226 8.978L70.2966 11.885H72.3396ZM78.3 7.745C78.966 7.745 79.548 7.874 80.046 8.132C80.55 8.384 80.937 8.75 81.207 9.23C81.483 9.704 81.621 10.259 81.621 10.895C81.621 11.531 81.483 12.083 81.207 12.551C80.937 13.019 80.55 13.379 80.046 13.631C79.548 13.877 78.966 14 78.3 14H76.257V7.745H78.3ZM78.3 13.163C79.032 13.163 79.593 12.965 79.983 12.569C80.373 12.173 80.568 11.615 80.568 10.895C80.568 10.169 80.373 9.602 79.983 9.194C79.593 8.786 79.032 8.582 78.3 8.582H77.283V13.163H78.3ZM86.6159 14.063C86.0339 14.063 85.4969 13.928 85.0049 13.658C84.5189 13.382 84.1319 13.001 83.8439 12.515C83.5619 12.023 83.4209 11.471 83.4209 10.859C83.4209 10.247 83.5619 9.698 83.8439 9.212C84.1319 8.726 84.5189 8.348 85.0049 8.078C85.4969 7.802 86.0339 7.664 86.6159 7.664C87.2039 7.664 87.7409 7.802 88.2269 8.078C88.7189 8.348 89.1059 8.726 89.3879 9.212C89.6699 9.698 89.8109 10.247 89.8109 10.859C89.8109 11.471 89.6699 12.023 89.3879 12.515C89.1059 13.001 88.7189 13.382 88.2269 13.658C87.7409 13.928 87.2039 14.063 86.6159 14.063ZM86.6159 13.172C87.0299 13.172 87.3989 13.079 87.7229 12.893C88.0469 12.701 88.2989 12.431 88.4789 12.083C88.6649 11.729 88.7579 11.321 88.7579 10.859C88.7579 10.397 88.6649 9.992 88.4789 9.644C88.2989 9.296 88.0469 9.029 87.7229 8.843C87.3989 8.657 87.0299 8.564 86.6159 8.564C86.2019 8.564 85.8329 8.657 85.5089 8.843C85.1849 9.029 84.9299 9.296 84.7439 9.644C84.5639 9.992 84.4739 10.397 84.4739 10.859C84.4739 11.321 84.5639 11.729 84.7439 12.083C84.9299 12.431 85.1849 12.701 85.5089 12.893C85.8329 13.079 86.2019 13.172 86.6159 13.172Z" fill="white"/>
<g clip-path="url(#clip0_639_3445)">
<path d="M109.505 11.5038C109.944 10.9279 110.209 10.2109 110.209 9.43275C110.209 7.54507 108.674 6.01001 106.786 6.01001H100.531V17.5735H107.337C109.225 17.5735 110.76 16.0385 110.76 14.1508C110.76 13.0847 110.27 12.1326 109.505 11.5038ZM103.371 8.13629H106.226C106.94 8.13629 107.521 8.71694 107.521 9.43158C107.521 10.1462 106.939 10.7269 106.226 10.7269H103.371V8.13512V8.13629ZM106.482 15.4461H103.371V12.8543H106.482C107.196 12.8543 107.777 13.4361 107.777 14.1496C107.777 14.8631 107.196 15.4449 106.482 15.4449" fill="white"/>
<path d="M120 3.94701C120 4.36662 119.838 4.71101 119.518 4.98135C119.197 5.25052 118.784 5.38451 118.281 5.38451C117.809 5.38451 117.409 5.25992 117.083 5.01074C116.759 4.76273 116.566 4.42304 116.504 3.99285H117.778C117.874 4.24085 118.045 4.36662 118.294 4.36662C118.447 4.36662 118.573 4.32666 118.671 4.24555C118.77 4.16445 118.819 4.05867 118.819 3.92702C118.819 3.79538 118.771 3.69782 118.675 3.62142C118.578 3.54502 118.446 3.50623 118.274 3.50623H117.842V2.61411H118.241C118.403 2.61411 118.533 2.57767 118.628 2.50597C118.724 2.43428 118.772 2.33907 118.772 2.22035C118.772 2.08871 118.728 1.9841 118.638 1.90535C118.549 1.8266 118.428 1.78781 118.274 1.78781C118.12 1.78781 117.995 1.8407 117.897 1.94531C117.838 2.00878 117.794 2.09341 117.765 2.1945H116.549C116.619 1.75255 116.808 1.40816 117.116 1.16133C117.424 0.914493 117.809 0.791077 118.268 0.791077C118.754 0.791077 119.153 0.922721 119.466 1.18483C119.779 1.44695 119.935 1.78193 119.935 2.18862C119.935 2.56004 119.782 2.84449 119.475 3.04195C119.826 3.23824 120.001 3.54032 120.001 3.94701" fill="white"/>
<path d="M100.558 3.79409V2.37775H96.2017V21.2099H100.558V19.7888H97.6145V3.79409H100.558Z" fill="white"/>
<path d="M110.678 19.7888V21.2099H115.034V2.37775H110.678V3.79409H113.622V19.7888H110.678Z" fill="white"/>
</g>
<defs>
<clipPath id="clip0_639_3445">
<rect width="23.7982" height="20.4201" fill="white" transform="translate(96.2017 0.789978)"/>
</clipPath>
</defs>
</svg>
